<svg width="34" height="25" viewBox="0 0 34 25" fill="none" xmlns="http://www.w3.org/2000/svg">
<mask id="path-1-inside-1_2144_1379" fill="white">
<path d="M33.6679 4.2125C33.8805 3.99944 33.9999 3.71045 34 3.40909V1.13636C34 0.834981 33.8806 0.545943 33.6681 0.332833C33.4555 0.119724 33.1672 0 32.8667 0H19.2667C18.9661 6.43607e-05 18.6779 0.119831 18.4654 0.332955L17.6641 1.13636H16.3359L15.5346 0.332955C15.3221 0.119831 15.0339 6.43607e-05 14.7333 0H1.13333C0.832755 0 0.544487 0.119724 0.331946 0.332833C0.119404 0.545943 0 0.834981 0 1.13636V3.40909C6.41891e-05 3.71045 0.119511 3.99944 0.332067 4.2125L1.13333 5.01591V6.34773L0.332067 7.15114C0.119511 7.3642 6.41891e-05 7.65319 0 7.95455V10.2273C6.41891e-05 10.5286 0.119511 10.8176 0.332067 11.0307L1.13333 11.8341V13.1659L0.332067 13.9693C0.119511 14.1824 6.41891e-05 14.4714 0 14.7727V17.0455C6.41891e-05 17.3468 0.119511 17.6358 0.332067 17.8489L1.13333 18.6523V19.9841L0.332067 20.7875C0.119511 21.0006 6.41891e-05 21.2896 0 21.5909V23.8636C0 24.165 0.119404 24.4541 0.331946 24.6672C0.544487 24.8803 0.832755 25 1.13333 25H14.7333C14.8823 25.0001 15.0299 24.9708 15.1676 24.9136C15.3053 24.8565 15.4304 24.7727 15.5357 24.667L16.3359 23.8636H17.6641L18.4654 24.667C18.6779 24.8802 18.9661 24.9999 19.2667 25H32.8667C33.1672 25 33.4555 24.8803 33.6681 24.6672C33.8806 24.4541 34 24.165 34 23.8636V21.5909C33.9999 21.2896 33.8805 21.0006 33.6679 20.7875L32.8667 19.9841V18.6523L33.6679 17.8489C33.8805 17.6358 33.9999 17.3468 34 17.0455V14.7727C33.9999 14.4714 33.8805 14.1824 33.6679 13.9693L32.8667 13.1659V11.8341L33.6679 11.0307C33.8805 10.8176 33.9999 10.5286 34 10.2273V7.95455C33.9999 7.65319 33.8805 7.3642 33.6679 7.15114L32.8667 6.34773V5.01591L33.6679 4.2125ZM18.9346 21.9239C18.7221 21.7107 18.4339 21.591 18.1333 21.5909H15.8667C15.7177 21.5908 15.5701 21.6201 15.4324 21.6773C15.2947 21.7344 15.1696 21.8182 15.0643 21.9239L14.263 22.7273H2.26667V22.0614L3.06793 21.258C3.28049 21.0449 3.39994 20.7559 3.4 20.4545V18.1818C3.39994 17.8805 3.28049 17.5915 3.06793 17.3784L2.26667 16.575V15.2432L3.06793 14.4398C3.28049 14.2267 3.39994 13.9377 3.4 13.6364V11.3636C3.39994 11.0623 3.28049 10.7733 3.06793 10.5602L2.26667 9.75682V8.425L3.06793 7.62159C3.28049 7.40853 3.39994 7.11954 3.4 6.81818V4.54545C3.39994 4.2441 3.28049 3.95511 3.06793 3.74205L2.26667 2.93864V2.27273H14.263L15.0643 3.07614C15.1696 3.1818 15.2947 3.2656 15.4324 3.32273C15.5701 3.37986 15.7177 3.40921 15.8667 3.40909H18.1333C18.4339 3.40903 18.7221 3.28926 18.9346 3.07614L19.7359 2.27273H31.7333V2.93864L30.9321 3.74205C30.7195 3.95511 30.6001 4.2441 30.6 4.54545V6.81818C30.6001 7.11954 30.7195 7.40853 30.9321 7.62159L31.7333 8.425V9.75682L30.9321 10.5602C30.7195 10.7733 30.6001 11.0623 30.6 11.3636V13.6364C30.6001 13.9377 30.7195 14.2267 30.9321 14.4398L31.7333 15.2432V16.575L30.9321 17.3784C30.7195 17.5915 30.6001 17.8805 30.6 18.1818V20.4545C30.6001 20.7559 30.7195 21.0449 30.9321 21.258L31.7333 22.0614V22.7273H19.737L18.9346 21.9239ZM9.06667 10.2273C9.06667 10.5287 9.18607 10.8177 9.39861 11.0308C9.61115 11.2439 9.89942 11.3636 10.2 11.3636C11.0011 11.3621 11.7768 11.6449 12.3899 12.1619C13.0029 12.679 13.4137 13.3968 13.5494 14.1884C13.6852 14.98 13.5371 15.7943 13.1315 16.4869C12.7259 17.1795 12.0889 17.7059 11.3333 17.9727V19.3182C11.3333 19.6196 11.2139 19.9086 11.0014 20.1217C10.7888 20.3348 10.5006 20.4545 10.2 20.4545C9.89942 20.4545 9.61115 20.3348 9.39861 20.1217C9.18607 19.9086 9.06667 19.6196 9.06667 19.3182V17.9727C8.40604 17.7385 7.8337 17.3054 7.42797 16.7326C7.02223 16.1598 6.8029 15.4753 6.8 14.7727C6.8 14.4713 6.9194 14.1823 7.13195 13.9692C7.34449 13.7561 7.63275 13.6364 7.93333 13.6364C8.23391 13.6364 8.52218 13.7561 8.73472 13.9692C8.94726 14.1823 9.06667 14.4713 9.06667 14.7727C9.06667 14.9975 9.13314 15.2172 9.25767 15.4041C9.3822 15.5909 9.5592 15.7366 9.76629 15.8226C9.97338 15.9086 10.2013 15.9311 10.4211 15.8873C10.6409 15.8434 10.8429 15.7352 11.0014 15.5763C11.1599 15.4173 11.2678 15.2149 11.3116 14.9944C11.3553 14.774 11.3328 14.5455 11.2471 14.3379C11.1613 14.1302 11.016 13.9527 10.8296 13.8279C10.6433 13.703 10.4242 13.6364 10.2 13.6364C9.39893 13.6379 8.62317 13.3551 8.01013 12.8381C7.39708 12.321 6.98631 11.6032 6.85056 10.8116C6.71482 10.02 6.86286 9.20574 7.26848 8.51311C7.67409 7.82047 8.31109 7.29411 9.06667 7.02727V5.68182C9.06667 5.38044 9.18607 5.0914 9.39861 4.87829C9.61115 4.66518 9.89942 4.54545 10.2 4.54545C10.5006 4.54545 10.7888 4.66518 11.0014 4.87829C11.2139 5.0914 11.3333 5.38044 11.3333 5.68182V7.02727C11.994 7.26146 12.5663 7.69458 12.972 8.26739C13.3778 8.84019 13.5971 9.5247 13.6 10.2273C13.6 10.5287 13.4806 10.8177 13.2681 11.0308C13.0555 11.2439 12.7672 11.3636 12.4667 11.3636C12.1661 11.3636 11.8778 11.2439 11.6653 11.0308C11.4527 10.8177 11.3333 10.5287 11.3333 10.2273C11.3333 9.92589 11.2139 9.63685 11.0014 9.42374C10.7888 9.21063 10.5006 9.09091 10.2 9.09091C9.89942 9.09091 9.61115 9.21063 9.39861 9.42374C9.18607 9.63685 9.06667 9.92589 9.06667 10.2273ZM19.2667 9.65909C19.2667 9.32196 19.3664 8.99241 19.5532 8.7121C19.74 8.43179 20.0055 8.21331 20.3161 8.0843C20.6267 7.95528 20.9686 7.92153 21.2983 7.9873C21.6281 8.05307 21.931 8.21541 22.1687 8.4538C22.4065 8.69218 22.5684 8.9959 22.634 9.32655C22.6996 9.6572 22.6659 9.99993 22.5373 10.3114C22.4086 10.6229 22.1907 10.8891 21.9111 11.0764C21.6316 11.2637 21.3029 11.3636 20.9667 11.3636C20.5158 11.3636 20.0834 11.1841 19.7646 10.8644C19.4458 10.5447 19.2667 10.1112 19.2667 9.65909ZM27.2 15.3409C27.2 15.678 27.1003 16.0076 26.9135 16.2879C26.7267 16.5682 26.4612 16.7867 26.1506 16.9157C25.8399 17.0447 25.4981 17.0785 25.1683 17.0127C24.8386 16.9469 24.5357 16.7846 24.2979 16.5462C24.0602 16.3078 23.8983 16.0041 23.8327 15.6734C23.7671 15.3428 23.8007 15.0001 23.9294 14.6886C24.0581 14.3771 24.276 14.1109 24.5555 13.9236C24.8351 13.7363 25.1638 13.6364 25.5 13.6364C25.9509 13.6364 26.3833 13.8159 26.7021 14.1356C27.0209 14.4553 27.2 14.8888 27.2 15.3409ZM26.9371 9.81818L21.2704 16.6364C21.1765 16.7551 21.0598 16.8537 20.9273 16.9266C20.7948 16.9994 20.6491 17.0449 20.4987 17.0604C20.3484 17.076 20.1965 17.0612 20.052 17.017C19.9074 16.9728 19.7731 16.9 19.657 16.803C19.541 16.706 19.4454 16.5867 19.3759 16.4521C19.3065 16.3175 19.2646 16.1704 19.2528 16.0193C19.2409 15.8683 19.2593 15.7164 19.3068 15.5725C19.3543 15.4287 19.4301 15.2959 19.5296 15.1818L25.1963 8.36364C25.2902 8.24494 25.4069 8.14627 25.5394 8.07345C25.6719 8.00062 25.8176 7.95511 25.9679 7.93958C26.1183 7.92405 26.2702 7.93882 26.4147 7.98303C26.5593 8.02723 26.6935 8.09998 26.8096 8.19698C26.9257 8.29398 27.0213 8.41329 27.0907 8.54787C27.1601 8.68246 27.202 8.82961 27.2139 8.98066C27.2258 9.13172 27.2074 9.28363 27.1599 9.42746C27.1123 9.57129 27.0366 9.70414 26.9371 9.81818Z"/>
</mask>
<path d="M33.6679 4.2125C33.8805 3.99944 33.9999 3.71045 34 3.40909V1.13636C34 0.834981 33.8806 0.545943 33.6681 0.332833C33.4555 0.119724 33.1672 0 32.8667 0H19.2667C18.9661 6.43607e-05 18.6779 0.119831 18.4654 0.332955L17.6641 1.13636H16.3359L15.5346 0.332955C15.3221 0.119831 15.0339 6.43607e-05 14.7333 0H1.13333C0.832755 0 0.544487 0.119724 0.331946 0.332833C0.119404 0.545943 0 0.834981 0 1.13636V3.40909C6.41891e-05 3.71045 0.119511 3.99944 0.332067 4.2125L1.13333 5.01591V6.34773L0.332067 7.15114C0.119511 7.3642 6.41891e-05 7.65319 0 7.95455V10.2273C6.41891e-05 10.5286 0.119511 10.8176 0.332067 11.0307L1.13333 11.8341V13.1659L0.332067 13.9693C0.119511 14.1824 6.41891e-05 14.4714 0 14.7727V17.0455C6.41891e-05 17.3468 0.119511 17.6358 0.332067 17.8489L1.13333 18.6523V19.9841L0.332067 20.7875C0.119511 21.0006 6.41891e-05 21.2896 0 21.5909V23.8636C0 24.165 0.119404 24.4541 0.331946 24.6672C0.544487 24.8803 0.832755 25 1.13333 25H14.7333C14.8823 25.0001 15.0299 24.9708 15.1676 24.9136C15.3053 24.8565 15.4304 24.7727 15.5357 24.667L16.3359 23.8636H17.6641L18.4654 24.667C18.6779 24.8802 18.9661 24.9999 19.2667 25H32.8667C33.1672 25 33.4555 24.8803 33.6681 24.6672C33.8806 24.4541 34 24.165 34 23.8636V21.5909C33.9999 21.2896 33.8805 21.0006 33.6679 20.7875L32.8667 19.9841V18.6523L33.6679 17.8489C33.8805 17.6358 33.9999 17.3468 34 17.0455V14.7727C33.9999 14.4714 33.8805 14.1824 33.6679 13.9693L32.8667 13.1659V11.8341L33.6679 11.0307C33.8805 10.8176 33.9999 10.5286 34 10.2273V7.95455C33.9999 7.65319 33.8805 7.3642 33.6679 7.15114L32.8667 6.34773V5.01591L33.6679 4.2125ZM18.9346 21.9239C18.7221 21.7107 18.4339 21.591 18.1333 21.5909H15.8667C15.7177 21.5908 15.5701 21.6201 15.4324 21.6773C15.2947 21.7344 15.1696 21.8182 15.0643 21.9239L14.263 22.7273H2.26667V22.0614L3.06793 21.258C3.28049 21.0449 3.39994 20.7559 3.4 20.4545V18.1818C3.39994 17.8805 3.28049 17.5915 3.06793 17.3784L2.26667 16.575V15.2432L3.06793 14.4398C3.28049 14.2267 3.39994 13.9377 3.4 13.6364V11.3636C3.39994 11.0623 3.28049 10.7733 3.06793 10.5602L2.26667 9.75682V8.425L3.06793 7.62159C3.28049 7.40853 3.39994 7.11954 3.4 6.81818V4.54545C3.39994 4.2441 3.28049 3.95511 3.06793 3.74205L2.26667 2.93864V2.27273H14.263L15.0643 3.07614C15.1696 3.1818 15.2947 3.2656 15.4324 3.32273C15.5701 3.37986 15.7177 3.40921 15.8667 3.40909H18.1333C18.4339 3.40903 18.7221 3.28926 18.9346 3.07614L19.7359 2.27273H31.7333V2.93864L30.9321 3.74205C30.7195 3.95511 30.6001 4.2441 30.6 4.54545V6.81818C30.6001 7.11954 30.7195 7.40853 30.9321 7.62159L31.7333 8.425V9.75682L30.9321 10.5602C30.7195 10.7733 30.6001 11.0623 30.6 11.3636V13.6364C30.6001 13.9377 30.7195 14.2267 30.9321 14.4398L31.7333 15.2432V16.575L30.9321 17.3784C30.7195 17.5915 30.6001 17.8805 30.6 18.1818V20.4545C30.6001 20.7559 30.7195 21.0449 30.9321 21.258L31.7333 22.0614V22.7273H19.737L18.9346 21.9239ZM9.06667 10.2273C9.06667 10.5287 9.18607 10.8177 9.39861 11.0308C9.61115 11.2439 9.89942 11.3636 10.2 11.3636C11.0011 11.3621 11.7768 11.6449 12.3899 12.1619C13.0029 12.679 13.4137 13.3968 13.5494 14.1884C13.6852 14.98 13.5371 15.7943 13.1315 16.4869C12.7259 17.1795 12.0889 17.7059 11.3333 17.9727V19.3182C11.3333 19.6196 11.2139 19.9086 11.0014 20.1217C10.7888 20.3348 10.5006 20.4545 10.2 20.4545C9.89942 20.4545 9.61115 20.3348 9.39861 20.1217C9.18607 19.9086 9.06667 19.6196 9.06667 19.3182V17.9727C8.40604 17.7385 7.8337 17.3054 7.42797 16.7326C7.02223 16.1598 6.8029 15.4753 6.8 14.7727C6.8 14.4713 6.9194 14.1823 7.13195 13.9692C7.34449 13.7561 7.63275 13.6364 7.93333 13.6364C8.23391 13.6364 8.52218 13.7561 8.73472 13.9692C8.94726 14.1823 9.06667 14.4713 9.06667 14.7727C9.06667 14.9975 9.13314 15.2172 9.25767 15.4041C9.3822 15.5909 9.5592 15.7366 9.76629 15.8226C9.97338 15.9086 10.2013 15.9311 10.4211 15.8873C10.6409 15.8434 10.8429 15.7352 11.0014 15.5763C11.1599 15.4173 11.2678 15.2149 11.3116 14.9944C11.3553 14.774 11.3328 14.5455 11.2471 14.3379C11.1613 14.1302 11.016 13.9527 10.8296 13.8279C10.6433 13.703 10.4242 13.6364 10.2 13.6364C9.39893 13.6379 8.62317 13.3551 8.01013 12.8381C7.39708 12.321 6.98631 11.6032 6.85056 10.8116C6.71482 10.02 6.86286 9.20574 7.26848 8.51311C7.67409 7.82047 8.31109 7.29411 9.06667 7.02727V5.68182C9.06667 5.38044 9.18607 5.0914 9.39861 4.87829C9.61115 4.66518 9.89942 4.54545 10.2 4.54545C10.5006 4.54545 10.7888 4.66518 11.0014 4.87829C11.2139 5.0914 11.3333 5.38044 11.3333 5.68182V7.02727C11.994 7.26146 12.5663 7.69458 12.972 8.26739C13.3778 8.84019 13.5971 9.5247 13.6 10.2273C13.6 10.5287 13.4806 10.8177 13.2681 11.0308C13.0555 11.2439 12.7672 11.3636 12.4667 11.3636C12.1661 11.3636 11.8778 11.2439 11.6653 11.0308C11.4527 10.8177 11.3333 10.5287 11.3333 10.2273C11.3333 9.92589 11.2139 9.63685 11.0014 9.42374C10.7888 9.21063 10.5006 9.09091 10.2 9.09091C9.89942 9.09091 9.61115 9.21063 9.39861 9.42374C9.18607 9.63685 9.06667 9.92589 9.06667 10.2273ZM19.2667 9.65909C19.2667 9.32196 19.3664 8.99241 19.5532 8.7121C19.74 8.43179 20.0055 8.21331 20.3161 8.0843C20.6267 7.95528 20.9686 7.92153 21.2983 7.9873C21.6281 8.05307 21.931 8.21541 22.1687 8.4538C22.4065 8.69218 22.5684 8.9959 22.634 9.32655C22.6996 9.6572 22.6659 9.99993 22.5373 10.3114C22.4086 10.6229 22.1907 10.8891 21.9111 11.0764C21.6316 11.2637 21.3029 11.3636 20.9667 11.3636C20.5158 11.3636 20.0834 11.1841 19.7646 10.8644C19.4458 10.5447 19.2667 10.1112 19.2667 9.65909ZM27.2 15.3409C27.2 15.678 27.1003 16.0076 26.9135 16.2879C26.7267 16.5682 26.4612 16.7867 26.1506 16.9157C25.8399 17.0447 25.4981 17.0785 25.1683 17.0127C24.8386 16.9469 24.5357 16.7846 24.2979 16.5462C24.0602 16.3078 23.8983 16.0041 23.8327 15.6734C23.7671 15.3428 23.8007 15.0001 23.9294 14.6886C24.0581 14.3771 24.276 14.1109 24.5555 13.9236C24.8351 13.7363 25.1638 13.6364 25.5 13.6364C25.9509 13.6364 26.3833 13.8159 26.7021 14.1356C27.0209 14.4553 27.2 14.8888 27.2 15.3409ZM26.9371 9.81818L21.2704 16.6364C21.1765 16.7551 21.0598 16.8537 20.9273 16.9266C20.7948 16.9994 20.6491 17.0449 20.4987 17.0604C20.3484 17.076 20.1965 17.0612 20.052 17.017C19.9074 16.9728 19.7731 16.9 19.657 16.803C19.541 16.706 19.4454 16.5867 19.3759 16.4521C19.3065 16.3175 19.2646 16.1704 19.2528 16.0193C19.2409 15.8683 19.2593 15.7164 19.3068 15.5725C19.3543 15.4287 19.4301 15.2959 19.5296 15.1818L25.1963 8.36364C25.2902 8.24494 25.4069 8.14627 25.5394 8.07345C25.6719 8.00062 25.8176 7.95511 25.9679 7.93958C26.1183 7.92405 26.2702 7.93882 26.4147 7.98303C26.5593 8.02723 26.6935 8.09998 26.8096 8.19698C26.9257 8.29398 27.0213 8.41329 27.0907 8.54787C27.1601 8.68246 27.202 8.82961 27.2139 8.98066C27.2258 9.13172 27.2074 9.28363 27.1599 9.42746C27.1123 9.57129 27.0366 9.70414 26.9371 9.81818Z" stroke="#00133B" stroke-width="4" mask="url(#path-1-inside-1_2144_1379)"/>
</svg>
