<svg width="34" height="36" viewBox="0 0 34 36" fill="none" xmlns="http://www.w3.org/2000/svg">
<path d="M12.2778 30.3158C11.7174 30.3158 11.1696 30.4825 10.7037 30.7948C10.2377 31.1071 9.87457 31.5509 9.66012 32.0703C9.44567 32.5896 9.38956 33.161 9.49889 33.7124C9.60821 34.2637 9.87806 34.7701 10.2743 35.1676C10.6706 35.565 11.1754 35.8357 11.725 35.9454C12.2746 36.0551 12.8443 35.9988 13.362 35.7837C13.8798 35.5685 14.3223 35.2043 14.6336 34.7369C14.9449 34.2695 15.1111 33.72 15.1111 33.1579C15.1111 32.4041 14.8126 31.6812 14.2812 31.1482C13.7499 30.6152 13.0292 30.3158 12.2778 30.3158ZM32.1111 24.6316H9.44444C8.94348 24.6316 8.46303 24.432 8.1088 24.0766C7.75456 23.7213 7.55556 23.2394 7.55556 22.7368C7.55556 22.2343 7.75456 21.7524 8.1088 21.3971C8.46303 21.0417 8.94348 20.8421 9.44444 20.8421H25.4834C26.7139 20.8381 27.9099 20.4343 28.8923 19.691C29.8747 18.9478 30.5905 17.9052 30.9324 16.7196L33.9271 6.20507C34.0075 5.92308 34.0215 5.62624 33.968 5.3379C33.9146 5.04956 33.7951 4.77761 33.6191 4.54345C33.443 4.30929 33.2152 4.11931 32.9535 3.98848C32.6919 3.85764 32.4035 3.78952 32.1111 3.78947H8.95158C8.56055 2.68552 7.83973 1.72934 6.88731 1.05123C5.9349 0.373108 4.79722 0.00602668 3.62929 0H1.88889C1.38792 0 0.907478 0.199623 0.553243 0.554955C0.199007 0.910288 0 1.39222 0 1.89474C0 2.39725 0.199007 2.87919 0.553243 3.23452C0.907478 3.58985 1.38792 3.78947 1.88889 3.78947H3.62929C4.03934 3.79091 4.43789 3.92554 4.76526 4.17322C5.09264 4.42089 5.33123 4.76827 5.44531 5.16335L5.73907 6.19549L5.73952 6.20507L8.83849 17.085C7.39644 17.2406 6.06876 17.9449 5.12883 19.053C4.18891 20.161 3.70829 21.5883 3.78595 23.0411C3.86361 24.4939 4.49362 25.8615 5.54627 26.8623C6.59892 27.8631 7.99407 28.421 9.44444 28.4211H32.1111C32.6121 28.4211 33.0925 28.2214 33.4468 27.8661C33.801 27.5108 34 27.0288 34 26.5263C34 26.0238 33.801 25.5419 33.4468 25.1865C33.0925 24.8312 32.6121 24.6316 32.1111 24.6316ZM29.607 7.57895L27.3003 15.6778C27.1864 16.0732 26.9477 16.4209 26.6201 16.6688C26.2926 16.9167 25.8937 17.0513 25.4834 17.0526H12.7583L12.2767 15.3621L10.061 7.57895H29.607ZM27.3889 30.3158C26.8285 30.3158 26.2807 30.4825 25.8148 30.7948C25.3488 31.1071 24.9857 31.5509 24.7712 32.0703C24.5568 32.5896 24.5007 33.161 24.61 33.7124C24.7193 34.2637 24.9892 34.7701 25.3854 35.1676C25.7817 35.565 26.2865 35.8357 26.8361 35.9454C27.3857 36.0551 27.9554 35.9988 28.4732 35.7837C28.9909 35.5685 29.4334 35.2043 29.7447 34.7369C30.056 34.2695 30.2222 33.72 30.2222 33.1579C30.2222 32.4041 29.9237 31.6812 29.3924 31.1482C28.861 30.6152 28.1403 30.3158 27.3889 30.3158Z" fill="black"/>
</svg>
