<svg width="225" height="225" viewBox="0 0 225 225" fill="none" xmlns="http://www.w3.org/2000/svg">
<path d="M225 112.5C225 174.632 174.632 225 112.5 225C50.3678 225 0 174.632 0 112.5C0 50.3678 50.3678 0 112.5 0C174.632 0 225 50.3678 225 112.5ZM99.4872 172.068L182.955 88.6001C185.789 85.7658 185.789 81.1701 182.955 78.3358L172.691 68.0716C169.856 65.2368 165.261 65.2368 162.426 68.0716L94.3548 136.142L62.574 104.361C59.7398 101.527 55.1441 101.527 52.3093 104.361L42.0451 114.626C39.2108 117.46 39.2108 122.056 42.0451 124.89L89.2225 172.067C92.0572 174.902 96.6525 174.902 99.4872 172.068Z" fill="#0332FC"/>
</svg>
