<svg width="16" height="16" viewBox="0 0 16 16" fill="none" xmlns="http://www.w3.org/2000/svg">
<path d="M6.73807 1.18642C7.02346 0.236859 8.36804 0.236862 8.65343 1.18642L9.65854 4.53064C9.78559 4.95338 10.1748 5.24281 10.6162 5.24281H14.0249C14.9746 5.24281 15.3895 6.44256 14.6426 7.02923L11.7542 9.2979C11.4307 9.55198 11.2958 9.97822 11.4142 10.3722L12.4853 13.936C12.7664 14.8712 11.6779 15.6134 10.9099 15.0102L8.31344 12.9708C7.95088 12.686 7.44061 12.686 7.07805 12.9708L4.48156 15.0102C3.7136 15.6134 2.62511 14.8712 2.90619 13.9359L3.97729 10.3722C4.09568 9.97822 3.96078 9.55198 3.6373 9.2979L0.748929 7.02923C0.00201988 6.44256 0.416862 5.24281 1.36662 5.24281H4.77528C5.2167 5.24281 5.6059 4.95338 5.73296 4.53064L6.73807 1.18642Z" fill="#F8B84E"/>
</svg>
