<svg width="73" height="73" viewBox="0 0 73 73" fill="none" xmlns="http://www.w3.org/2000/svg">
<g filter="url(#filter0_d_1813_2147)">
<circle cx="36.5" cy="36.5" r="31.5" fill="#D9372C"/>
</g>
<path d="M54.364 51.9987H17.636C16.2012 51.9987 15 50.8501 15 49.3669V23.6637C15.0014 22.9572 15.2796 22.2801 15.7738 21.7808C16.2679 21.2815 16.9376 21.0007 17.636 21H54.364C55.7988 21 57 22.1951 57 23.6663V49.3337C56.9672 50.8527 55.7988 51.9987 54.364 51.9987Z" fill="#F2F2F2"/>
<path opacity="0.1" d="M20.4203 52L35.9017 40.4082L36 39.736L20.0323 28L20 51.4284L20.4203 52Z" fill="#221F1F"/>
<path d="M17.5307 51.9211C16.0588 51.9211 14.8633 50.772 14.8633 49.2882V23.5396C14.8633 22.0545 16.0588 21.7861 17.5307 21.7861C19.0026 21.7861 20.1982 22.0917 20.1982 23.5396V51.9198L17.5307 51.9211Z" fill="#D44C3D"/>
<path d="M17.531 22.1903C19.4213 22.1903 19.7933 22.7642 19.7933 23.54V51.5482H17.531C16.2823 51.5482 15.2687 50.5359 15.2687 49.2859V23.54C15.2355 22.7429 15.6407 22.1903 17.531 22.1903ZM17.531 21.8184C16.0591 21.8197 14.8635 22.1226 14.8635 23.54V49.2527C14.8585 49.6043 14.9241 49.9535 15.0564 50.2793C15.1887 50.6052 15.385 50.9013 15.6337 51.15C15.8824 51.3987 16.1784 51.595 16.5043 51.7273C16.8302 51.8595 17.1793 51.9251 17.531 51.9201H20.1984V23.54C20.1772 22.0894 19.0162 21.8184 17.531 21.8184ZM54.6972 22.1903C56.4188 22.1903 56.9595 22.5277 56.9595 23.4736V49.3217C56.9595 50.5704 55.9473 51.584 54.6972 51.584H52.4349V23.4736C52.4017 22.4945 52.9756 22.1903 54.6972 22.1903ZM54.6972 21.8184C53.2121 21.8184 52.0298 22.0203 52.0298 23.4722V51.9533H54.6972C56.1824 51.9533 57.3647 50.7578 57.3647 49.2859V23.439C57.3315 21.9871 56.1492 21.8184 54.6972 21.8184Z" fill="#D44C3D"/>
<path d="M54.6967 51.9211H52.0293V23.4732C52.0293 21.988 53.2249 21.8193 54.6967 21.8193C56.1686 21.8193 57.3642 22.0213 57.3642 23.4732V49.3214C57.3492 50.0179 57.0612 50.6807 56.5623 51.167C56.0634 51.6532 55.3934 51.924 54.6967 51.9211Z" fill="#D44C3D"/>
<path opacity="0.08" d="M43.0449 51.9667L15 24.756L16.4759 25.3622L36.0139 39.4842L57 24V49.371C56.9986 49.7188 56.9289 50.0628 56.7947 50.3834C56.6606 50.704 56.4648 50.9947 56.2184 51.239C55.9721 51.4833 55.6802 51.6763 55.3594 51.8069C55.0386 51.9374 54.6953 52.003 54.3492 51.9999L43.0449 51.9667Z" fill="#221F1F"/>
<path d="M36.0648 40.3175L16.0112 25.7688C14.8156 24.892 14.4915 23.2049 15.3696 22.0226C16.2476 20.8404 17.9334 20.5707 19.1502 21.4488L36.0967 33.7698L53.1442 21.2814C54.3398 20.4046 55.9804 20.6743 56.8571 21.8885C57.7339 23.084 57.4642 24.7246 56.25 25.6014L36.0648 40.3175Z" fill="#D44C3D"/>
<path d="M54.6962 21.1774C55.4055 21.1774 56.1136 21.5148 56.5533 22.1232C57.2627 23.1354 57.0581 24.5542 56.0485 25.3114L36.0639 39.8455L16.2467 25.4655C15.2345 24.7215 14.9635 23.2696 15.6595 22.2773C16.0647 21.6702 16.7754 21.2982 17.5499 21.2982C18.0547 21.2982 18.5289 21.4337 18.8995 21.7366L35.8102 34.0244L36.0466 34.1599L36.2831 34.0244L53.3133 21.5467C53.7517 21.3102 54.19 21.1747 54.6975 21.1747L54.6962 21.1774ZM54.6962 20.7722C54.1555 20.7722 53.5803 20.9077 53.1419 21.277L36.0958 33.768L19.1161 21.4138C18.6777 21.0764 18.1038 20.909 17.5299 20.909C16.6864 20.9422 15.8429 21.3142 15.3354 22.0249C14.4919 23.2204 14.8306 24.861 16.0102 25.7378L36.0639 40.3171L56.2491 25.5983C56.8169 25.1826 57.1987 24.5605 57.3123 23.8661C57.4258 23.1716 57.262 22.4603 56.8562 21.8854C56.3155 21.176 55.5065 20.7695 54.6962 20.7695V20.7722Z" fill="#D44C3D"/>
<defs>
<filter id="filter0_d_1813_2147" x="0" y="0" width="73" height="73" filterUnits="userSpaceOnUse" color-interpolation-filters="sRGB">
<feFlood flood-opacity="0" result="BackgroundImageFix"/>
<feColorMatrix in="SourceAlpha" type="matrix" values="0 0 0 0 0 0 0 0 0 0 0 0 0 0 0 0 0 0 127 0" result="hardAlpha"/>
<feMorphology radius="2" operator="dilate" in="SourceAlpha" result="effect1_dropShadow_1813_2147"/>
<feOffset/>
<feGaussianBlur stdDeviation="1.5"/>
<feComposite in2="hardAlpha" operator="out"/>
<feColorMatrix type="matrix" values="0 0 0 0 0 0 0 0 0 0 0 0 0 0 0 0 0 0 0.15 0"/>
<feBlend mode="normal" in2="BackgroundImageFix" result="effect1_dropShadow_1813_2147"/>
<feBlend mode="normal" in="SourceGraphic" in2="effect1_dropShadow_1813_2147" result="shape"/>
</filter>
</defs>
</svg>
