<svg width="31" height="31" viewBox="0 0 31 31" fill="none" xmlns="http://www.w3.org/2000/svg">
<path d="M17.8196 28.1909L16.2836 29.7269C15.6332 30.3773 14.5815 30.3773 13.9381 29.7269L0.48778 16.2836C-0.162593 15.6332 -0.162593 14.5815 0.48778 13.9381L13.9381 0.48778C14.5884 -0.162593 15.6401 -0.162593 16.2836 0.48778L17.8196 2.02377C18.4768 2.68106 18.463 3.75349 17.7919 4.39694L9.45464 12.3398H29.3395C30.2597 12.3398 31 13.0801 31 14.0003V16.2144C31 17.1346 30.2597 17.8749 29.3395 17.8749H9.45464L17.7919 25.8178C18.4699 26.4612 18.4838 27.5336 17.8196 28.1909Z" fill="#0332FC"/>
</svg>
