<svg width="107" height="51" viewBox="0 0 107 51" fill="none" xmlns="http://www.w3.org/2000/svg">
<path d="M31.596 39.044H34.764C35.412 39.068 35.808 39.236 35.952 39.548C36.072 39.776 36.132 40.112 36.132 40.556V44.516C36.132 44.9 35.964 45.266 35.628 45.614C34.62 46.658 33.108 47.18 31.092 47.18C29.304 47.18 27.75 46.508 26.43 45.164C25.11 43.808 24.45 42.176 24.45 40.268C24.45 38.36 25.122 36.77 26.466 35.498C27.81 34.214 29.394 33.572 31.218 33.572C32.634 33.572 33.972 34.04 35.232 34.976C35.556 35.216 35.718 35.486 35.718 35.786C35.718 36.074 35.58 36.41 35.304 36.794C34.836 37.43 34.41 37.748 34.026 37.748C33.798 37.748 33.432 37.586 32.928 37.262C32.424 36.926 31.824 36.758 31.128 36.758C30.216 36.758 29.406 37.082 28.698 37.73C27.99 38.366 27.636 39.206 27.636 40.25C27.636 41.282 27.996 42.164 28.716 42.896C29.436 43.616 30.252 43.976 31.164 43.976C31.824 43.976 32.418 43.868 32.946 43.652V41.69H31.524C31.152 41.69 30.888 41.642 30.732 41.546C30.576 41.45 30.474 41.312 30.426 41.132C30.378 40.94 30.354 40.688 30.354 40.376C30.354 40.052 30.378 39.794 30.426 39.602C30.486 39.41 30.588 39.278 30.732 39.206C30.948 39.098 31.236 39.044 31.596 39.044ZM43.7256 38.522C43.7976 37.85 44.2716 37.514 45.1476 37.514C45.6156 37.514 45.9636 37.55 46.1916 37.622C46.4196 37.694 46.5756 37.82 46.6596 38C46.7556 38.18 46.8096 38.342 46.8216 38.486C46.8456 38.618 46.8576 38.822 46.8576 39.098V45.398C46.8576 45.674 46.8456 45.884 46.8216 46.028C46.8096 46.16 46.7616 46.316 46.6776 46.496C46.5096 46.808 46.0956 46.964 45.4356 46.964C44.7876 46.964 44.3496 46.886 44.1216 46.73C43.9056 46.562 43.7796 46.322 43.7436 46.01C43.2996 46.646 42.5556 46.964 41.5116 46.964C40.4796 46.964 39.5196 46.49 38.6316 45.542C37.7436 44.594 37.2996 43.496 37.2996 42.248C37.2996 40.988 37.7436 39.89 38.6316 38.954C39.5316 38.006 40.5156 37.532 41.5836 37.532C41.9916 37.532 42.3636 37.604 42.6996 37.748C43.0356 37.892 43.2696 38.03 43.4016 38.162C43.5336 38.282 43.6416 38.402 43.7256 38.522ZM40.4496 42.266C40.4496 42.662 40.6056 43.022 40.9176 43.346C41.2296 43.658 41.6076 43.814 42.0516 43.814C42.4956 43.814 42.8616 43.652 43.1496 43.328C43.4496 43.004 43.5996 42.65 43.5996 42.266C43.5996 41.87 43.4556 41.504 43.1676 41.168C42.8916 40.832 42.5136 40.664 42.0336 40.664C41.5656 40.664 41.1816 40.832 40.8816 41.168C40.5936 41.504 40.4496 41.87 40.4496 42.266ZM51.3883 38.774C51.9523 37.922 52.6303 37.496 53.4223 37.496C54.6463 37.496 55.5583 38.018 56.1583 39.062C56.2903 38.882 56.4463 38.696 56.6263 38.504C56.8183 38.3 57.1183 38.084 57.5263 37.856C57.9343 37.616 58.3543 37.496 58.7863 37.496C59.7463 37.496 60.5503 37.868 61.1983 38.612C61.8463 39.344 62.1703 40.562 62.1703 42.266V45.416C62.1703 45.692 62.1583 45.902 62.1343 46.046C62.1223 46.178 62.0683 46.334 61.9723 46.514C61.8163 46.838 61.3543 47 60.5863 47C59.8303 47 59.3683 46.832 59.2003 46.496C59.1163 46.316 59.0623 46.16 59.0383 46.028C59.0263 45.884 59.0203 45.674 59.0203 45.398V42.248C59.0203 41.204 58.6483 40.682 57.9043 40.682C57.4843 40.682 57.1963 40.82 57.0403 41.096C56.8963 41.372 56.8243 41.762 56.8243 42.266V45.416C56.8243 45.704 56.8123 45.914 56.7883 46.046C56.7763 46.178 56.7223 46.334 56.6263 46.514C56.4583 46.838 55.9903 47 55.2223 47C54.4663 47 54.0043 46.832 53.8363 46.496C53.7523 46.316 53.6983 46.16 53.6743 46.028C53.6623 45.884 53.6563 45.674 53.6563 45.398V42.248C53.6563 41.204 53.2843 40.682 52.5403 40.682C51.8203 40.682 51.4603 41.204 51.4603 42.248V45.434C51.4603 45.71 51.4483 45.92 51.4243 46.064C51.4123 46.196 51.3583 46.352 51.2623 46.532C51.0823 46.844 50.6143 47 49.8583 47C49.1023 47 48.6403 46.838 48.4723 46.514C48.3883 46.334 48.3343 46.178 48.3103 46.046C48.2983 45.914 48.2923 45.704 48.2923 45.416V39.08C48.2923 38.804 48.2983 38.6 48.3103 38.468C48.3343 38.324 48.3943 38.168 48.4903 38C48.6703 37.676 49.0963 37.514 49.7683 37.514C50.4403 37.514 50.8783 37.622 51.0823 37.838C51.2863 38.054 51.3883 38.366 51.3883 38.774ZM72.7468 41.132C72.7468 41.864 72.5608 42.41 72.1888 42.77C71.8288 43.118 71.4268 43.292 70.9828 43.292H66.7168C66.7168 43.628 66.9148 43.91 67.3108 44.138C67.7068 44.366 68.1028 44.48 68.4988 44.48C69.1948 44.48 69.7408 44.408 70.1368 44.264L70.3348 44.192C70.6228 44.06 70.8628 43.994 71.0548 43.994C71.4388 43.994 71.7688 44.264 72.0448 44.804C72.2008 45.128 72.2788 45.404 72.2788 45.632C72.2788 46.7 71.0008 47.234 68.4448 47.234C67.5568 47.234 66.7648 47.084 66.0688 46.784C65.3848 46.472 64.8508 46.064 64.4668 45.56C63.7108 44.588 63.3328 43.502 63.3328 42.302C63.3328 40.79 63.8188 39.584 64.7908 38.684C65.7748 37.772 66.9988 37.316 68.4628 37.316C70.1308 37.316 71.3548 37.904 72.1348 39.08C72.5428 39.704 72.7468 40.388 72.7468 41.132ZM68.9488 41.654C69.4048 41.654 69.6328 41.462 69.6328 41.078C69.6328 40.802 69.5248 40.58 69.3088 40.412C69.1048 40.244 68.8048 40.16 68.4088 40.16C68.0248 40.16 67.6408 40.322 67.2568 40.646C66.8728 40.958 66.6808 41.294 66.6808 41.654H68.9488ZM73.9932 46.154C73.7652 46.01 73.6512 45.782 73.6512 45.47C73.6512 45.158 73.8792 44.684 74.3352 44.048C74.4672 43.844 74.6772 43.742 74.9652 43.742C75.2652 43.742 75.6672 43.892 76.1712 44.192C76.6752 44.48 77.1312 44.624 77.5392 44.624C78.2712 44.624 78.6372 44.48 78.6372 44.192C78.6372 43.964 78.2352 43.796 77.4312 43.688C76.6752 43.58 75.9252 43.298 75.1812 42.842C74.8332 42.626 74.5452 42.29 74.3172 41.834C74.0892 41.366 73.9752 40.814 73.9752 40.178C73.9752 38.282 75.2772 37.334 77.8812 37.334C78.7332 37.334 79.6092 37.538 80.5092 37.946C80.9292 38.138 81.1392 38.378 81.1392 38.666C81.1392 38.954 81.0072 39.308 80.7432 39.728C80.4792 40.148 80.2092 40.358 79.9332 40.358C79.7892 40.358 79.5192 40.268 79.1232 40.088C78.7392 39.908 78.3192 39.818 77.8632 39.818C77.1552 39.818 76.8012 39.95 76.8012 40.214C76.8012 40.574 77.2092 40.808 78.0252 40.916C78.8172 41 79.5852 41.228 80.3292 41.6C80.6772 41.768 80.9652 42.062 81.1932 42.482C81.4332 42.89 81.5532 43.406 81.5532 44.03C81.5532 44.654 81.4332 45.188 81.1932 45.632C80.9652 46.064 80.6412 46.388 80.2212 46.604C79.4532 46.976 78.4872 47.162 77.3232 47.162C76.1712 47.162 75.0612 46.826 73.9932 46.154Z" fill="#0332FC"/>
<path d="M13.504 16.856H19.136C20.288 16.8987 20.992 17.1973 21.248 17.752C21.4613 18.1573 21.568 18.7547 21.568 19.544V26.584C21.568 27.2667 21.2693 27.9173 20.672 28.536C18.88 30.392 16.192 31.32 12.608 31.32C9.42933 31.32 6.66667 30.1253 4.32 27.736C1.97333 25.3253 0.8 22.424 0.8 19.032C0.8 15.64 1.99467 12.8133 4.384 10.552C6.77333 8.26933 9.58933 7.128 12.832 7.128C15.3493 7.128 17.728 7.96 19.968 9.624C20.544 10.0507 20.832 10.5307 20.832 11.064C20.832 11.576 20.5867 12.1733 20.096 12.856C19.264 13.9867 18.5067 14.552 17.824 14.552C17.4187 14.552 16.768 14.264 15.872 13.688C14.976 13.0907 13.9093 12.792 12.672 12.792C11.0507 12.792 9.61067 13.368 8.352 14.52C7.09333 15.6507 6.464 17.144 6.464 19C6.464 20.8347 7.104 22.4027 8.384 23.704C9.664 24.984 11.1147 25.624 12.736 25.624C13.9093 25.624 14.9653 25.432 15.904 25.048V21.56H13.376C12.7147 21.56 12.2453 21.4747 11.968 21.304C11.6907 21.1333 11.5093 20.888 11.424 20.568C11.3387 20.2267 11.296 19.7787 11.296 19.224C11.296 18.648 11.3387 18.1893 11.424 17.848C11.5307 17.5067 11.712 17.272 11.968 17.144C12.352 16.952 12.864 16.856 13.504 16.856ZM35.0678 15.928C35.1958 14.7333 36.0384 14.136 37.5958 14.136C38.4278 14.136 39.0464 14.2 39.4518 14.328C39.8571 14.456 40.1344 14.68 40.2838 15C40.4544 15.32 40.5504 15.608 40.5718 15.864C40.6144 16.0987 40.6358 16.4613 40.6358 16.952V28.152C40.6358 28.6427 40.6144 29.016 40.5718 29.272C40.5504 29.5067 40.4651 29.784 40.3158 30.104C40.0171 30.6587 39.2811 30.936 38.1078 30.936C36.9558 30.936 36.1771 30.7973 35.7718 30.52C35.3878 30.2213 35.1638 29.7947 35.0998 29.24C34.3104 30.3707 32.9878 30.936 31.1318 30.936C29.2971 30.936 27.5904 30.0933 26.0118 28.408C24.4331 26.7227 23.6438 24.7707 23.6438 22.552C23.6438 20.312 24.4331 18.36 26.0118 16.696C27.6118 15.0107 29.3611 14.168 31.2598 14.168C31.9851 14.168 32.6464 14.296 33.2438 14.552C33.8411 14.808 34.2571 15.0533 34.4918 15.288C34.7264 15.5013 34.9184 15.7147 35.0678 15.928ZM29.2438 22.584C29.2438 23.288 29.5211 23.928 30.0758 24.504C30.6304 25.0587 31.3024 25.336 32.0918 25.336C32.8811 25.336 33.5318 25.048 34.0438 24.472C34.5771 23.896 34.8438 23.2667 34.8438 22.584C34.8438 21.88 34.5878 21.2293 34.0758 20.632C33.5851 20.0347 32.9131 19.736 32.0598 19.736C31.2278 19.736 30.5451 20.0347 30.0118 20.632C29.4998 21.2293 29.2438 21.88 29.2438 22.584ZM43.1863 9.016C43.1863 8.52533 43.1969 8.16267 43.2183 7.928C43.2609 7.672 43.3569 7.384 43.5063 7.064C43.8049 6.488 44.6369 6.2 46.0023 6.2C47.3036 6.2 48.1143 6.488 48.4343 7.064C48.6049 7.384 48.7009 7.672 48.7223 7.928C48.7649 8.184 48.7863 8.55733 48.7863 9.048V23.864C48.7863 24.632 48.8503 25.1227 48.9783 25.336C49.1063 25.528 49.3836 25.624 49.8103 25.624C50.2583 25.624 50.5569 25.6453 50.7063 25.688C50.8556 25.7093 51.0369 25.7947 51.2503 25.944C51.6769 26.2213 51.8903 26.9787 51.8903 28.216C51.8903 29.56 51.6769 30.3813 51.2503 30.68C50.6956 31.064 49.3729 31.128 47.2823 30.872C45.6396 30.6587 44.5729 30.1147 44.0823 29.24C43.4849 28.1947 43.1863 26.5307 43.1863 24.248V9.016ZM60.8305 30.936C58.6758 30.936 56.8838 30.1253 55.4545 28.504C54.0465 26.8613 53.3425 24.8667 53.3425 22.52V16.92C53.3425 16.408 53.3532 16.0347 53.3745 15.8C53.4172 15.5653 53.5132 15.288 53.6625 14.968C53.9612 14.392 54.7932 14.104 56.1585 14.104C57.6518 14.104 58.5265 14.5093 58.7825 15.32C58.9105 15.6613 58.9745 16.2053 58.9745 16.952V22.552C58.9745 23.4267 59.2198 24.1093 59.7105 24.6C60.2225 25.0907 60.8945 25.336 61.7265 25.336C62.5798 25.336 63.2625 25.08 63.7745 24.568C64.3078 24.056 64.5745 23.384 64.5745 22.552V16.888C64.5745 16.3973 64.5852 16.0347 64.6065 15.8C64.6492 15.544 64.7558 15.256 64.9265 14.936C65.2038 14.3813 66.0252 14.104 67.3905 14.104C68.7345 14.104 69.5558 14.392 69.8545 14.968C70.0038 15.288 70.0892 15.576 70.1105 15.832C70.1532 16.0667 70.1745 16.4293 70.1745 16.92V28.248C70.1745 28.7173 70.1532 29.08 70.1105 29.336C70.0892 29.5707 69.9932 29.8373 69.8225 30.136C69.5025 30.6907 68.6812 30.968 67.3585 30.968C66.0572 30.968 65.2572 30.712 64.9585 30.2C64.7452 29.8373 64.6385 29.4 64.6385 28.888C64.5532 29.0373 64.3612 29.2507 64.0625 29.528C63.7638 29.8053 63.4758 30.04 63.1985 30.232C62.4732 30.7013 61.6838 30.936 60.8305 30.936ZM82.6688 22.552L86.9248 26.072C87.4581 26.52 87.7888 26.8613 87.9167 27.096C88.0661 27.3307 88.1408 27.5547 88.1408 27.768C88.1408 28.28 87.8101 28.9733 87.1488 29.848C86.4234 30.744 85.7834 31.192 85.2288 31.192C84.7594 31.192 84.1088 30.8827 83.2768 30.264L82.9568 30.04C82.4661 29.6347 81.7088 28.9307 80.6848 27.928C79.6608 26.904 78.8821 26.1787 78.3488 25.752V28.216C78.3488 28.7067 78.3274 29.08 78.2848 29.336C78.2634 29.5707 78.1674 29.848 77.9968 30.168C77.7194 30.7227 76.8981 31 75.5328 31C74.1888 31 73.3674 30.712 73.0688 30.136C72.9194 29.816 72.8234 29.5387 72.7808 29.304C72.7594 29.048 72.7488 28.6747 72.7488 28.184V9.016C72.7488 8.52533 72.7594 8.16267 72.7808 7.928C72.8234 7.672 72.9194 7.384 73.0688 7.064C73.3674 6.488 74.1994 6.2 75.5648 6.2C76.5888 6.2 77.3141 6.38133 77.7408 6.744C78.1034 7.04267 78.2954 7.512 78.3168 8.152C78.3381 8.344 78.3488 8.64267 78.3488 9.048V19.192C78.7328 18.872 79.3088 18.328 80.0768 17.56C80.8661 16.792 81.4528 16.248 81.8368 15.928L82.2208 15.672C82.9674 15.096 83.6074 14.808 84.1408 14.808C84.6741 14.808 85.2821 15.2453 85.9648 16.12C86.6688 16.9733 87.0208 17.6453 87.0208 18.136C87.0208 18.6267 86.6261 19.2027 85.8368 19.864L82.6688 22.552ZM99.8803 15.928C100.008 14.7333 100.851 14.136 102.408 14.136C103.24 14.136 103.859 14.2 104.264 14.328C104.67 14.456 104.947 14.68 105.096 15C105.267 15.32 105.363 15.608 105.384 15.864C105.427 16.0987 105.448 16.4613 105.448 16.952V28.152C105.448 28.6427 105.427 29.016 105.384 29.272C105.363 29.5067 105.278 29.784 105.128 30.104C104.83 30.6587 104.094 30.936 102.92 30.936C101.768 30.936 100.99 30.7973 100.584 30.52C100.2 30.2213 99.9763 29.7947 99.9123 29.24C99.1229 30.3707 97.8003 30.936 95.9443 30.936C94.1096 30.936 92.4029 30.0933 90.8243 28.408C89.2456 26.7227 88.4563 24.7707 88.4563 22.552C88.4563 20.312 89.2456 18.36 90.8243 16.696C92.4243 15.0107 94.1736 14.168 96.0723 14.168C96.7976 14.168 97.4589 14.296 98.0563 14.552C98.6536 14.808 99.0696 15.0533 99.3043 15.288C99.5389 15.5013 99.7309 15.7147 99.8803 15.928ZM94.0563 22.584C94.0563 23.288 94.3336 23.928 94.8883 24.504C95.4429 25.0587 96.1149 25.336 96.9043 25.336C97.6936 25.336 98.3443 25.048 98.8563 24.472C99.3896 23.896 99.6563 23.2667 99.6563 22.584C99.6563 21.88 99.4003 21.2293 98.8883 20.632C98.3976 20.0347 97.7256 19.736 96.8723 19.736C96.0403 19.736 95.3576 20.0347 94.8243 20.632C94.3123 21.2293 94.0563 21.88 94.0563 22.584Z" fill="black"/>
</svg>
