<svg width="221" height="168" viewBox="0 0 221 168" fill="none" xmlns="http://www.w3.org/2000/svg">
<g clip-path="url(#clip0_1704_4653)">
<path d="M178.684 68.187C176.437 33.474 152.243 0 107.869 0C67.284 0 35.9862 30.0982 34.3287 70.266C12.1234 77.1592 0 100.868 0 118.125C0 144.695 22.1316 168 47.3571 168H81.5595C82.2573 168 82.9265 167.723 83.4199 167.231C83.9133 166.739 84.1905 166.071 84.1905 165.375C84.1905 164.679 83.9133 164.011 83.4199 163.519C82.9265 163.027 82.2573 162.75 81.5595 162.75H47.3571C24.9309 162.75 5.2619 141.897 5.2619 118.125C5.2619 102.107 19.3322 73.5 47.3571 73.5H55.25C55.9478 73.5 56.617 73.2234 57.1104 72.7312C57.6038 72.2389 57.881 71.5712 57.881 70.875C57.881 70.1788 57.6038 69.5111 57.1104 69.0188C56.617 68.5266 55.9478 68.25 55.25 68.25H47.3571C44.6788 68.25 42.1479 68.5492 39.68 68.9798C41.7427 37.5322 65.7001 5.25 107.869 5.25C153.058 5.25 173.643 40.6297 173.643 73.5V81.375C173.643 82.0712 173.92 82.7389 174.413 83.2312C174.907 83.7234 175.576 84 176.274 84C176.972 84 177.641 83.7234 178.134 83.2312C178.628 82.7389 178.905 82.0712 178.905 81.375V73.4528C194.79 75.1905 215.738 92.2005 215.738 118.125C215.738 138.212 196.316 162.75 173.643 162.75H134.179C117.141 162.75 110.5 156.124 110.5 139.125V67.1107L131.958 88.4783C132.2 88.7293 132.49 88.9296 132.811 89.0676C133.132 89.2057 133.477 89.2785 133.826 89.2821C134.176 89.2856 134.522 89.2196 134.846 89.0881C135.169 88.9566 135.463 88.7621 135.711 88.516C135.958 88.2699 136.154 87.9771 136.287 87.6547C136.419 87.3323 136.486 86.9867 136.484 86.6382C136.481 86.2896 136.409 85.9451 136.272 85.6246C136.134 85.3042 135.934 85.0143 135.683 84.7717L112.21 61.3988C109.085 58.2907 106.659 58.2907 103.538 61.3988L80.0651 84.7717C79.5859 85.2668 79.3207 85.9299 79.3267 86.6182C79.3327 87.3064 79.6094 87.9648 80.0972 88.4515C80.585 88.9382 81.2449 89.2143 81.9347 89.2203C82.6245 89.2262 83.2891 88.9617 83.7853 88.4835L105.238 67.1107V139.125C105.238 159.096 114.162 168 134.179 168H173.643C199.147 168 221 140.574 221 118.125C221 90.9983 198.779 69.783 178.684 68.187Z" fill="black"/>
</g>
<defs>
<clipPath id="clip0_1704_4653">
<rect width="221" height="168" fill="white"/>
</clipPath>
</defs>
</svg>
